<mxfile host="Electron" agent="Mozilla/5.0 (Macintosh; Intel Mac OS X 10_15_7) AppleWebKit/537.36 (KHTML, like Gecko) draw.io/26.2.2 Chrome/134.0.6998.178 Electron/35.1.2 Safari/537.36" version="26.2.2">
  <diagram name="Drawing" id="Jfqgd8u25Oevf-gU-ieG">
    <mxGraphModel dx="2068" dy="1137" grid="1" gridSize="10" guides="1" tooltips="1" connect="1" arrows="1" fold="1" page="1" pageScale="1" pageWidth="850" pageHeight="1100" math="0" shadow="0">
      <root>
        <mxCell id="0" />
        <mxCell id="1" parent="0" />
        <mxCell id="Mo0-YdTTdGrfvyeQyloK-4" value="" style="edgeStyle=orthogonalEdgeStyle;rounded=0;orthogonalLoop=1;jettySize=auto;html=1;" parent="1" source="Mo0-YdTTdGrfvyeQyloK-1" target="veikko" edge="1">
          <mxGeometry relative="1" as="geometry" />
        </mxCell>
        <mxCell id="Mo0-YdTTdGrfvyeQyloK-1" value="A" style="whiteSpace=wrap;html=1;aspect=fixed;" parent="1" vertex="1">
          <mxGeometry x="170" y="160" width="80" height="80" as="geometry" />
        </mxCell>
        <object label="B" id="veikko">
          <mxCell style="whiteSpace=wrap;html=1;aspect=fixed;" parent="1" vertex="1">
            <mxGeometry x="290" y="60" width="80" height="80" as="geometry" />
          </mxCell>
        </object>
      </root>
    </mxGraphModel>
  </diagram>
</mxfile>
